#!OML:ASF F:\VICON\USERDATA\INSTALL\rory3\rory3.ASF
:FULLY-SPECIFIED
:DEGREES
66
root -0.8761517439600746 18.654209294459342 32.41808673517087 5.031430089300883 0.795589651124068 -3.670433985570863
lfemur -32.1853500651512 1.0382970011497323 -19.59690839467378
ltibia 52.996554084762266
lfoot 5.655127937554224 -15.514179848568896
ltoes -8.47159192756015
rfemur 2.683300547084176 13.23197825011239 34.80091199260965
rtibia 26.969013937533397
rfoot 23.97707210180004 -2.328183634547007
rtoes 13.767596758957984
lowerback 10.184793800988743 1.8746601473967144 4.659427956335939
upperback -2.063809061317534 3.284649095409902 0.3182367906009076
thorax -7.299145683458019 1.383396436971319 -2.360279657444511
lowerneck -19.397283611499386 -4.695255938740911 -2.238817630455556
upperneck 13.102861622450902 -6.419708178177854 4.102648873351786
head 7.560673343820203 -2.8565856461490076 1.0911745148754963
lclavicle -6.475870865935813e-16 -4.8605599745672225e-15
lhumerus -59.530384832800586 -10.184142886519554 97.11378292768752
lradius 111.22090124649446
lwrist 32.38982575207318
lhand -30.527757592586717 -0.3212487612430791
lfingers 7.125019999999998
lthumb -4.037376024557505 29.60493506897782
rclavicle -6.462939999355647e-16 -4.858534040850579e-15
rhumerus -49.67373670121849 12.735823574082465 -98.22342877002625
rradius 112.56607730421
rwrist -13.087753569956096
rhand -18.18864763078746 35.147650817540296
rfingers 7.125019999999998
rthumb 8.246083014256742 6.072317770034164
67
root -0.9026813970348129 18.598857700227608 33.34150201609408 4.452685542089848 0.7549812877544071 -3.6174983134444174
lfemur -30.852198347129594 1.585750268935496 -20.725655053547683
ltibia 45.54990634060063
lfoot 7.916937045822799 -16.53832767399171
ltoes -9.105713728942385
rfemur 2.46391800355698 12.403748286849895 34.51527637189449
rtibia 29.068294527422694
rfoot 21.8317721777931 -3.5779426274745236
rtoes 11.917209897214109
lowerback 10.550420789227392 1.909090444288684 4.479301459101315
upperback -1.9413289198960157 3.319087346880795 0.2339455252758964
thorax -7.145090931509479 1.4489319263293114 -2.3814060012331066
lowerneck -19.339705184808558 -4.740298697736729 -2.3410910147248387
upperneck 13.245233858735357 -6.530668609728892 4.483371061924705
head 7.630139806741812 -2.879843279440904 1.2021600042099512
lclavicle -6.48028297308721e-16 -4.860871879328815e-15
lhumerus -58.39159245793634 -10.306242961886165 97.30388407521545
lradius 111.3720801398881
lwrist 31.512736718005925
lhand -30.62320557555968 -0.7022423464563557
lfingers 7.125019999999998
lthumb -4.033030139512341 29.253254202450094
rclavicle -6.468356016796703e-16 -4.8588569916368824e-15
rhumerus -49.57003385827438 12.869415775542038 -98.22304125588072
rradius 113.43984376241123
rwrist -13.809190334625939
rhand -18.058835724692816 35.12697287351628
rfingers 7.125019999999998
rthumb 8.309914675814401 6.262970210453956
68
root -0.9396935750951634 18.495520236200033 34.70028638439824 4.000128097716061 0.7858371865137536 -4.040295903350405
lfemur -29.513359660054093 1.9954700808726513 -21.290292422957773
ltibia 39.99577506465489
lfoot 9.321446717459674 -15.9962372339347
ltoes -11.527319457101314
rfemur 2.2474578491545785 11.61351661880174 34.6299167446378
rtibia 31.377028894537357
rfoot 19.25048543680045 -4.940233559122141
rtoes 11.65797511128429
lowerback 10.860948854869058 1.9162772445727052 4.800027395991368
upperback -1.7655897228927078 3.370271052473559 0.24609652224504308
thorax -6.965922678130991 1.5090568990787234 -2.3906997059285655
lowerneck -19.411024886429487 -4.788825859206532 -2.4423447893135064
upperneck 13.20755477610864 -6.635995904869845 4.896413078255385
head 7.649242073063991 -2.8989911465750136 1.3274939939154895
lclavicle -6.468144263231456e-16 -4.860013691248415e-15
lhumerus -57.31138108217997 -10.709761227788746 97.5141208310796
lradius 111.83647218429796
lwrist 31.419843798930046
lhand -30.859941676225887 -0.9136831923243416
lfingers 7.125019999999998
lthumb -4.121649635135964 29.04540679421122
rclavicle -6.474796993688293e-16 -4.8592297243953814e-15
rhumerus -49.42188496912496 13.018937032219878 -98.2157060799062
rradius 114.40280112630889
rwrist -14.408119296891934
rhand -17.858412959745227 35.13714957686963
rfingers 7.125019999999998
rthumb 8.390621704553286 6.476211785971215
69
root -0.9844839014667517 18.342702345077143 35.62312168268388 3.097546596662468 1.0771988114751094 -3.6896196369286933
lfemur -28.03356727520074 1.984000943774491 -22.68982284286579
ltibia 36.330452151314674
lfoot 9.601841862818866 -14.676125281102578
ltoes -14.52175342198479
rfemur 1.6718214933025592 10.22689011914268 33.58472076613962
rtibia 34.22927837755155
rfoot 16.924614115589012 -5.893360873301148
rtoes 13.4430906027454
lowerback 11.587897485123111 1.8718877333912012 4.268306049694845
upperback -1.4817346746476008 3.2416263033260124 0.24870902965924935
thorax -6.997391956729456 1.485381814829648 -2.264842950844427
lowerneck -19.41895885703876 -4.822155429757599 -2.5276283818994165
upperneck 12.955746110960558 -6.70228694039143 5.29412332273147
head 7.605477812464734 -2.9000804893706214 1.4602478548607927
lclavicle -6.454767371595363e-16 -4.8590679415542665e-15
lhumerus -55.67057102432256 -11.150595178566553 97.75387989896046
lradius 112.29206621948998
lwrist 31.843762290807888
lhand -31.17283805396629 -1.047526164597842
lfingers 7.125019999999998
lthumb -4.2102055973909085 28.983657873232012
rclavicle -6.494077529245713e-16 -4.860596099800056e-15
rhumerus -49.207585243906514 13.153669440659414 -98.19081037255523
rradius 115.34134306321326
rwrist -14.825448031768985
rhand -17.64434855596646 35.29058748626264
rfingers 7.125019999999998
rthumb 8.490131535036424 6.802543014958562
70
root -1.0650139898240054 18.110633053749584 36.506046377633254 2.1234897024905965 1.7798104033738484 -4.0593922346553954
lfemur -27.0645942421354 1.9542857341782645 -22.96414002436344
ltibia 34.519084027872566
lfoot 9.17822862931724 -13.775818369349263
ltoes -15.70398443021763
rfemur 0.845010859045864 8.554426645187293 33.322708212381826
rtibia 37.90650527602418
rfoot 15.058139690770755 -6.028436542488918
rtoes 14.933648083436589
lowerback 12.525134675295108 1.7094238018523304 4.32712126038871
upperback -1.3339677038521147 3.039806753766353 0.3310825277455096
thorax -7.1213102742618775 1.3893436740229546 -2.08253913898151
lowerneck -19.381944452437526 -4.837009598728075 -2.5962728707972356
upperneck 12.612597306626448 -6.735673990788921 5.627480686480607
head 7.5404555255105805 -2.8866574418714936 1.5782830669179742
lclavicle -6.455178419505611e-16 -4.859097116773084e-15
lhumerus -53.633217557480265 -11.5997855970639 97.91444641750849
lradius 112.76186487175151
lwrist 32.85350034788831
lhand -31.487413331138413 -1.1647786904876452
lfingers 7.125019999999998
lthumb -4.357942824146197 28.95979392791147
rclavicle -6.514943881936524e-16 -4.862064231284232e-15
rhumerus -48.89161641836662 13.29461820719018 -98.1039582428378
rradius 116.18786259536814
rwrist -15.099414023581494
rhand -17.48253546930654 35.23609394742248
rfingers 7.125019999999998
rthumb 8.52329071876691 6.919440570917566
